<svg width="50" height="48" viewBox="0 0 50 48" fill="none" xmlns="http://www.w3.org/2000/svg">
<path fill-rule="evenodd" clip-rule="evenodd" d="M22.8861 2.42074C22.2504 2.01391 21.4327 2.02786 20.8113 2.45615C20.1899 2.88443 19.8858 3.64356 20.0397 4.38241L20.6255 7.19395C13.6974 9.0353 8.54199 15.1433 8.54199 22.5002C8.54199 26.9314 10.4253 30.9283 13.4349 33.7954C14.1847 34.5097 15.3715 34.4809 16.0858 33.7312C16.8 32.9814 16.7713 31.7946 16.0215 31.0803C13.7061 28.8745 12.292 25.8399 12.292 22.5002C12.292 17.0496 16.094 12.3605 21.3912 10.8694L22.1231 14.3824C22.2759 15.1158 22.8506 15.6879 23.5847 15.8373C24.3188 15.9867 25.0714 15.6848 25.4987 15.0695L29.6654 9.06949C29.956 8.65098 30.0638 8.13221 29.964 7.63256C29.8641 7.1329 29.5652 6.69541 29.1361 6.42074L22.8861 2.42074ZM38.6491 13.1426C37.8993 12.4284 36.7125 12.4571 35.9982 13.2069C35.2839 13.9567 35.3127 15.1435 36.0625 15.8578C38.3779 18.0636 39.792 21.0982 39.792 24.4378C39.792 29.9264 35.937 34.6427 30.5821 36.0993L29.9609 33.1176C29.8081 32.3842 29.2334 31.8121 28.4993 31.6627C27.7652 31.5133 27.0126 31.8152 26.5853 32.4305L22.4186 38.4305C22.128 38.849 22.0202 39.3678 22.12 39.8675C22.2199 40.3671 22.5188 40.8046 22.9479 41.0793L29.1979 45.0793C29.8336 45.4861 30.6513 45.4721 31.2727 45.0439C31.8941 44.6156 32.1982 43.8564 32.0442 43.1176L31.3475 39.7732C38.3315 37.9679 43.542 31.834 43.542 24.4378C43.542 20.0066 41.6586 16.0097 38.6491 13.1426Z" fill="#3D3D3D"/>
</svg>
