<svg width="350" height="45" viewBox="0 0 350 45" fill="none" xmlns="http://www.w3.org/2000/svg">
<path d="M26.512 31.976C26.752 31.88 27.328 31.688 27.328 31.304C27.328 31.064 27.136 30.872 26.944 30.776C25.984 30.344 24.976 29.96 24.016 29.576C23.536 29.384 22.96 29.144 22.672 29.144C22.192 29.144 22.096 29.672 22 30.056C20.896 34.616 16.384 38.072 11.968 39.224C9.856 39.752 9.376 39.752 9.376 40.424C9.376 41.48 10.48 43.976 11.728 43.976C13.264 43.976 16.912 42.44 18.352 41.624C21.904 39.56 24.544 36.536 25.936 32.648C26.08 32.312 26.128 32.168 26.512 31.976ZM34.768 21.032C35.584 21.032 36.064 21.512 36.064 22.328V23.192C36.064 24.008 35.584 24.488 34.768 24.488H24.784C23.968 24.488 23.536 24.008 23.44 23.192V22.328C23.536 21.512 23.968 21.032 24.784 21.032H34.768ZM34.768 13.784C35.584 13.88 36.064 14.264 36.064 15.128V15.8C36.064 16.616 35.584 17.048 34.768 17.144H24.784C23.968 17.048 23.536 16.616 23.44 15.8V15.128C23.536 14.264 23.968 13.88 24.784 13.784H34.768ZM24.784 9.944C23.968 9.848 23.536 9.416 23.44 8.6V7.928C23.536 7.112 23.968 6.68 24.784 6.584H34.768C35.584 6.68 36.064 7.112 36.064 7.928V8.6C36.064 9.416 35.584 9.848 34.768 9.944H24.784ZM29.296 36.92C29.296 37.688 29.248 38.456 29.248 39.224C29.248 42.488 30.448 43.16 33.568 43.16H38.128C39.856 43.16 41.056 42.92 42.016 41.384C42.784 40.184 43.6 36.968 43.6 35.576C43.6 34.088 41.344 33.656 40.144 33.656C39.424 33.656 39.184 33.944 39.04 34.856C38.608 37.928 38.368 38.408 37.072 38.408H35.584C34.528 38.408 34.096 38.264 34.096 37.112V30.056C34.096 29.144 34.48 28.712 35.392 28.712H35.632C36.688 28.712 37.792 28.808 38.848 28.808C40.432 28.808 41.008 28.232 41.008 26.648C41.008 25.496 40.912 24.344 40.912 23.192V7.928C40.912 6.776 41.008 5.624 41.008 4.472C41.008 2.888 40.432 2.312 38.848 2.312C37.744 2.312 36.688 2.408 35.632 2.408H23.872C22.816 2.408 21.712 2.312 20.656 2.312C19.072 2.312 18.496 2.888 18.496 4.472C18.496 5.624 18.592 6.776 18.592 7.928V23.192C18.592 24.344 18.496 25.496 18.496 26.648C18.496 28.28 19.168 28.808 20.704 28.808C21.76 28.808 22.816 28.712 23.872 28.712H27.952C28.864 28.712 29.296 29.144 29.296 30.056V36.92ZM11.344 9.704C11.344 8.792 11.68 8.456 12.64 8.408C13.504 8.408 15.328 8.504 16.048 8.504C17.104 8.504 17.056 7.976 17.056 6.152C17.056 4.424 17.104 3.848 16.048 3.848C14.944 3.848 13.408 3.992 11.872 3.992H6.16C4.624 3.992 3.088 3.848 1.936 3.848C0.88 3.848 0.928 4.568 0.928 6.2C0.928 7.784 0.88 8.504 1.936 8.504C2.656 8.504 4.48 8.408 5.296 8.408C6.256 8.456 6.592 8.84 6.592 9.704V14.6C6.592 15.512 6.208 15.896 5.296 15.944C4.432 15.944 3.568 15.848 2.704 15.848C1.648 15.848 1.696 16.472 1.696 18.152C1.696 19.784 1.648 20.408 2.704 20.408C2.8 20.408 5.056 20.312 5.296 20.312C6.256 20.36 6.592 20.744 6.592 21.656V28.136C6.592 29.096 6.304 29.528 5.392 29.768C3.952 30.152 2.944 30.248 2.176 30.392C0.64 30.68 0.304 30.728 0.304 31.256C0.304 31.784 1.312 34.664 1.552 35.336C1.792 36.056 1.888 36.392 2.32 36.392C2.656 36.392 2.848 36.104 2.992 35.816C3.184 35.192 3.232 35.096 4.432 34.76C7.552 33.896 13.168 32.264 16.048 31.064C17.008 30.68 17.152 30.488 17.152 29.096C17.152 28.376 17.152 26.696 16.144 26.696C15.808 26.696 13.12 27.656 12.592 27.848C12.448 27.848 12.304 27.896 12.16 27.896C11.536 27.896 11.344 27.416 11.344 26.84V21.656C11.344 20.744 11.68 20.36 12.592 20.312C12.784 20.312 14.896 20.408 14.992 20.408C16 20.408 15.952 19.784 15.952 18.152C15.952 16.424 16 15.848 14.944 15.848C14.848 15.848 12.832 15.944 12.592 15.944C11.68 15.896 11.344 15.512 11.344 14.6V9.704ZM82.432 18.392C82.432 17.096 82.48 16.472 82.96 16.088C83.296 15.8 83.536 15.704 83.536 15.368C83.536 14.84 82.816 14.792 82.432 14.744C81.664 14.648 78.928 14.408 78.256 14.408C77.776 14.408 77.44 14.504 77.44 15.032C77.44 15.176 77.488 15.368 77.488 15.512C77.68 16.568 77.632 17.624 77.632 18.728V21.416C77.632 22.328 77.248 22.712 76.288 22.712H74.752C72.976 22.712 71.152 22.616 69.328 22.616C68.08 22.616 68.128 23.192 68.128 24.968C68.128 26.696 68.08 27.32 69.328 27.32C71.104 27.32 72.928 27.224 74.752 27.224H76.288C77.248 27.224 77.632 27.608 77.632 28.568V36.68C77.632 37.592 77.248 38.024 76.288 38.024H73.024C71.2 38.024 69.424 37.88 67.6 37.88C66.352 37.88 66.4 38.456 66.4 40.232C66.4 41.912 66.352 42.536 67.6 42.536C69.424 42.536 71.2 42.44 73.024 42.44H88C89.776 42.44 91.552 42.536 93.376 42.536C94.624 42.536 94.624 42.008 94.624 40.232C94.624 38.504 94.672 37.88 93.424 37.88C91.6 37.88 89.776 38.024 88 38.024H83.728C82.816 37.928 82.432 37.592 82.432 36.68V28.568C82.432 27.608 82.816 27.224 83.728 27.224H85.888C87.664 27.224 89.488 27.32 91.312 27.32C92.56 27.32 92.512 26.792 92.512 24.968C92.512 23.192 92.56 22.616 91.312 22.616C89.536 22.616 87.712 22.712 85.888 22.712H83.728C82.816 22.712 82.432 22.328 82.432 21.416V18.392ZM72.832 7.112C73.12 6.248 73.36 5.624 73.504 5.144C73.984 3.704 73.984 3.56 74.656 3.272C74.944 3.128 75.328 2.888 75.328 2.552C75.328 1.832 74.176 1.64 73.024 1.4C72.448 1.256 70.672 0.775997 70.24 0.775997C69.808 0.775997 69.664 1.064 69.568 1.448C69.136 3.512 68.752 5.144 68.032 7.16C67.696 8.12 67.216 8.36 66.256 8.36H59.44C57.472 8.36 55.504 8.216 53.488 8.216C52.336 8.216 52.384 8.84 52.384 10.616C52.384 12.44 52.384 12.968 53.536 12.968C55.504 12.968 57.472 12.872 59.44 12.872H64.384C64.816 12.92 65.248 13.016 65.248 13.592C65.248 13.736 65.2 13.88 65.152 14.024C64.192 15.848 63.184 17.672 62.032 19.4C61.648 19.928 61.36 20.024 60.736 20.072C60.544 20.072 60.4 20.024 60.208 20.024C59.776 20.024 59.44 20.12 59.44 20.648C59.44 20.84 59.488 21.464 59.536 21.704V22.04C59.536 22.712 59.344 23.048 58.912 23.528C57.04 25.784 55.168 27.56 52.864 29.432C52.48 29.768 51.712 30.248 51.712 30.824C51.712 31.496 53.536 33.56 54.4 33.56C55.312 33.56 58 30.824 58.72 30.104C58.864 29.96 58.96 29.912 59.152 29.912C59.488 29.912 59.584 30.2 59.632 30.488V37.4C59.632 39.128 59.488 40.808 59.488 42.536C59.488 43.88 60.064 43.88 61.936 43.88C63.76 43.88 64.336 43.88 64.336 42.488C64.336 40.808 64.192 39.08 64.192 37.4V24.68C64.192 23.768 64.336 23.384 64.864 22.616C66.784 19.88 68.464 17 69.904 14.024C70.384 13.112 70.768 12.872 71.776 12.872H87.568C89.536 12.872 91.504 12.968 93.52 12.968C94.672 12.968 94.624 12.392 94.624 10.616C94.624 8.84 94.672 8.216 93.52 8.216C91.504 8.216 89.536 8.36 87.568 8.36H73.696C73.6 8.36 72.736 8.312 72.736 7.544C72.736 7.4 72.784 7.304 72.832 7.112ZM121.504 12.104C122.032 12.104 122.272 12.488 122.272 12.968C122.272 15.272 121.36 20.024 120.736 22.328C119.392 27.224 116.704 32.696 114.304 32.696C111.856 32.696 111.232 28.232 111.232 26.456C111.232 20.36 114.4 15.224 119.872 12.632C120.256 12.44 121.12 12.104 121.504 12.104ZM126.112 6.488C114.784 6.488 106.192 15.416 106.192 26.648C106.192 28.904 106.624 31.496 107.68 33.464C108.976 35.912 111.28 38.024 114.208 38.024C116.848 38.024 118.96 36.248 120.544 34.328C125.152 28.808 126.832 20.264 127.36 13.256C127.408 12.44 127.408 11.384 128.512 11.384C128.944 11.384 129.904 11.672 130.336 11.816C135.328 13.544 138.016 18.152 138.016 23.288C138.016 30.152 133.072 34.28 126.784 35.768C126.304 35.864 125.584 35.96 125.584 36.44C125.584 37.496 127.552 40.472 128.8 40.472C129.952 40.472 132.928 39.128 134.032 38.552C139.888 35.432 143.392 29.72 143.392 23.048C143.392 18.488 141.76 14.456 138.544 11.24C135.136 7.88 130.816 6.488 126.112 6.488ZM168.688 3.56C168.688 3.08 168.256 2.888 167.296 2.408C166.576 2.024 164.512 0.967998 163.984 0.967998C163.504 0.967998 163.36 1.448 163.12 1.88C161.392 5.192 158.176 9.032 155.344 11.48C155.056 11.72 154.576 12.104 154.576 12.488C154.576 13.4 156.592 15.272 157.504 15.272C157.984 15.272 158.464 14.792 158.8 14.504C161.92 11.72 164.56 8.312 166.816 4.808C167.296 4.088 167.536 4.088 168.064 4.04C168.304 4.04 168.688 3.848 168.688 3.56ZM179.824 36.344C179.824 35.768 178.144 33.416 177.712 32.84C176.512 31.112 175.552 29.624 174.928 29.624C174.112 29.624 171.568 31.304 171.568 32.072C171.568 32.36 171.76 32.696 171.952 32.888C172.816 34.04 173.968 35.432 174.736 36.632C175.84 38.456 176.032 38.84 176.656 38.84C177.328 38.84 179.824 37.256 179.824 36.344ZM191.344 25.064C190.528 25.064 190.144 24.728 190.096 23.864C190.144 23.288 190.144 22.904 190.624 22.52C191.008 22.232 191.248 22.136 191.248 21.848C191.248 21.272 190.336 21.224 189.808 21.176C188.8 21.08 186.592 20.84 185.632 20.84C185.2 20.84 184.816 20.984 184.816 21.512V21.944C184.912 22.616 184.96 23.192 185.008 23.864C184.96 24.776 184.528 25.112 183.664 25.112H176.224C174.4 25.112 172.624 24.968 170.8 24.968C169.552 24.968 169.552 25.448 169.552 27.32C169.552 29.048 169.552 29.624 170.752 29.624C172.576 29.624 174.4 29.528 176.224 29.528H183.664C184.624 29.528 185.008 29.912 185.008 30.872V35.864C185.008 38.216 185.104 39.08 182.368 39.08C181.792 39.08 181.12 39.032 180.544 38.984C180.352 38.936 179.92 38.936 179.728 38.936C179.104 38.936 178.816 39.224 178.816 39.848C178.816 40.664 179.008 42.728 179.392 43.352C179.776 43.928 180.544 43.976 181.984 43.976C183.952 43.976 187.12 43.736 188.704 42.488C189.76 41.672 190.192 40.376 190.192 39.08C190.192 37.976 190.096 36.824 190.096 35.72V30.872C190.096 30.008 190.432 29.576 191.344 29.528C192.352 29.576 194.416 29.624 195.28 29.624C196.528 29.624 196.48 29.048 196.48 27.32C196.48 25.592 196.528 24.968 195.28 24.968C194.416 24.968 192.352 25.064 191.344 25.064ZM186.16 6.536C185.2 6.536 184.912 6.152 184.816 5.192C184.816 3.704 184.816 3.032 185.392 2.6C185.68 2.36 185.968 2.168 185.968 1.88C185.968 1.4 185.44 1.304 185.056 1.304C183.904 1.208 181.408 0.967998 180.448 0.967998C179.968 0.967998 179.584 1.064 179.584 1.64C179.584 1.784 179.632 2.024 179.632 2.168C179.728 3.176 179.872 4.184 179.824 5.192C179.824 6.152 179.44 6.536 178.48 6.536H177.232C175.504 6.536 173.824 6.44 172.096 6.44C170.848 6.44 170.896 7.112 170.896 8.744C170.896 10.472 170.848 11.096 172.144 11.096C173.824 11.096 175.552 10.952 177.232 10.952H178.48C179.44 10.952 179.824 11.384 179.824 12.296V14.504C179.824 15.464 179.44 15.848 178.48 15.848H175.504C173.728 15.848 171.904 15.752 170.08 15.752C168.832 15.752 168.88 16.328 168.88 18.104C168.88 19.784 168.832 20.408 170.08 20.408C171.904 20.408 173.728 20.312 175.504 20.312H190.624C192.4 20.312 194.224 20.408 196.048 20.408C197.296 20.408 197.248 19.832 197.248 18.056C197.248 16.376 197.296 15.752 196.048 15.752C194.224 15.752 192.448 15.848 190.624 15.848H186.16C185.2 15.848 184.816 15.464 184.816 14.504V12.296C184.816 11.384 185.2 10.952 186.16 10.952H188.464C190.144 10.952 191.872 11.096 193.552 11.096C194.8 11.096 194.8 10.472 194.8 8.744C194.8 7.112 194.848 6.44 193.6 6.44C191.872 6.44 190.144 6.536 188.464 6.536H186.16ZM165.232 20.648C166.576 18.92 167.92 17 169.072 15.08C169.504 14.408 169.6 14.36 170.272 14.216C170.56 14.168 170.992 14.024 170.992 13.64C170.992 13.16 170.32 12.872 168.928 12.296C168.016 11.912 166.528 11.24 166.096 11.24C165.712 11.24 165.52 11.672 165.376 12.008C163.12 16.376 158.896 21.608 155.056 24.776C154.672 25.064 154.288 25.4 154.288 25.928C154.288 26.84 156.112 28.904 156.88 28.904C157.696 28.904 159.088 27.416 159.664 26.84C159.808 26.744 159.904 26.696 160.096 26.696C160.432 26.696 160.576 26.984 160.576 27.272V36.488C160.576 38.456 160.48 40.376 160.48 42.344C160.48 43.688 160.96 44.024 162.976 44.024C164.896 44.024 165.472 43.784 165.472 42.488C165.472 40.472 165.376 38.456 165.376 36.488V25.88C165.376 24.344 165.424 23.336 165.952 23C166.24 22.808 166.672 22.616 166.672 22.184C166.672 21.608 165.904 21.512 165.472 21.464C165.232 21.416 165.04 21.32 165.04 21.032C165.04 20.936 165.136 20.744 165.232 20.648ZM223.024 2.792C222.256 2.792 222.304 3.848 222.208 4.52C222.112 5.624 221.536 9.752 221.2 10.616C220.768 11.624 220.24 11.768 216.832 11.768C214.912 11.768 212.08 11.576 211.408 11.576C211.168 11.576 210.4 11.528 210.4 12.776C210.4 13.448 210.688 15.272 210.928 15.944C211.12 16.616 211.456 16.904 212.176 16.904C213.136 16.904 216.88 16.472 217.984 16.424C218.272 16.424 218.704 16.376 218.992 16.376C219.424 16.376 219.76 16.616 219.76 17.096C219.76 17.432 219.616 17.96 219.52 18.296C218.752 21.224 218.128 23.432 216.88 26.264C216.64 26.84 216.208 27.752 216.208 28.376C216.208 29.72 218.944 31.064 220.048 31.064C220.624 31.064 221.056 30.44 221.392 30.008C223.84 26.648 228.832 24.008 233.008 24.008C235.888 24.008 237.76 26.168 237.76 29C237.76 35.336 230.128 36.776 225.136 36.776C223.312 36.776 221.872 36.44 221.248 36.44C220.672 36.44 220.24 36.824 220.24 37.448C220.24 38.168 220.624 39.896 220.864 40.616C221.152 41.624 221.392 41.864 222.976 41.864C226.048 41.864 230.08 41.288 233.008 40.52C238.576 39.032 242.704 35.336 242.704 29.288C242.704 23.384 238.864 19.352 232.96 19.352C229.6 19.352 227.44 20.312 224.56 21.944C224.416 22.04 224.224 22.136 224.032 22.136C223.696 22.136 223.552 21.992 223.552 21.704C223.552 21.464 223.6 21.08 223.696 20.84C223.984 19.784 224.224 18.92 224.368 18.248C224.944 15.992 224.992 15.656 226.576 15.464C229.264 15.176 234.928 14.312 237.52 13.832C238.72 13.592 239.248 13.448 239.248 12.68C239.248 11.864 239.008 10.472 238.816 9.704C238.624 9.032 238.528 8.36 237.904 8.36C237.52 8.36 236.944 8.552 236.608 8.696C234.784 9.32 229.072 10.808 227.344 10.808C226.816 10.808 226.528 10.472 226.528 10.088C226.528 9.752 226.72 9.224 226.816 8.888C226.96 8.504 227.008 8.216 227.104 7.928C227.344 7.016 227.44 6.536 228.112 5.96C228.352 5.768 228.544 5.576 228.544 5.24C228.544 4.184 223.504 2.792 223.024 2.792ZM284.08 36.344C284.08 35.768 282.592 33.656 282.208 33.08C281.68 32.36 280.144 30.008 279.232 30.008C278.512 30.008 276.256 31.688 276.256 32.408C276.256 32.696 276.496 32.936 276.64 33.128C277.12 33.704 277.648 34.424 278.032 35.048C278.32 35.48 278.608 35.864 278.896 36.248C279.808 37.64 280.528 38.696 281.056 38.696C281.776 38.696 284.08 37.4 284.08 36.344ZM293.824 23.576C293.776 22.472 293.872 22.136 294.4 21.896C294.736 21.704 295.12 21.56 295.12 21.272C295.12 20.792 294.256 20.792 293.872 20.744C292.96 20.648 290.704 20.456 289.792 20.456C289.408 20.456 288.976 20.552 288.976 21.08V21.464C289.12 22.184 289.12 22.856 289.168 23.576C289.072 24.488 288.784 24.824 287.824 24.824H280.864C279.28 24.824 277.648 24.728 276.016 24.728C274.816 24.728 274.864 25.304 274.864 27.032C274.864 28.76 274.864 29.288 276.016 29.288C277.648 29.288 279.232 29.192 280.864 29.192H287.824C288.784 29.192 289.168 29.576 289.168 30.536V35.816C289.168 38.648 289.12 39.224 286.48 39.224C285.376 39.224 284.176 39.128 283.984 39.128C283.264 39.128 283.168 39.8 283.168 40.376C283.168 44.36 284.416 44.12 286.432 44.12C289.744 44.12 293.872 43.928 293.872 39.56C293.872 38.552 293.824 37.496 293.824 36.488V30.536C293.824 29.624 294.16 29.24 295.072 29.192C296.224 29.24 297.376 29.288 298.528 29.288C299.68 29.288 299.68 28.712 299.68 27.032C299.68 25.304 299.68 24.728 298.48 24.728C297.328 24.728 296.224 24.824 295.072 24.824C294.256 24.824 293.824 24.44 293.824 23.576ZM288.832 4.472C288.832 3.608 288.88 3.032 289.36 2.696C289.648 2.504 289.984 2.36 289.984 2.024C289.984 1.544 289.216 1.496 288.88 1.448C288.112 1.352 285.328 1.112 284.656 1.112C284.224 1.112 283.792 1.208 283.792 1.736C283.792 1.832 283.84 2.024 283.84 2.168C283.984 3.32 284.08 4.568 284.032 5.72C284.032 6.68 283.6 7.064 282.688 7.064H282.352C280.624 7.064 278.944 6.92 277.216 6.92C276.112 6.92 276.112 7.4 276.112 9.08C276.112 10.712 276.112 11.192 277.168 11.192C278.896 11.192 280.624 11.096 282.352 11.096H282.688C283.6 11.096 284.032 11.48 284.032 12.44V14.456C284.032 15.368 283.6 15.8 282.688 15.8H280.912C278.992 15.8 277.024 15.656 275.104 15.656C273.76 15.656 273.808 16.184 273.808 17.912C273.808 19.592 273.76 20.12 275.056 20.12C277.024 20.12 278.944 20.024 280.912 20.024H293.008C294.928 20.024 296.896 20.12 298.864 20.12C300.16 20.12 300.112 19.592 300.112 17.912C300.112 16.184 300.16 15.656 298.816 15.656C296.896 15.656 294.928 15.8 293.008 15.8H290.176C289.216 15.8 288.832 15.368 288.832 14.456V12.44C288.832 11.48 289.216 11.096 290.176 11.096H291.856C293.584 11.096 295.312 11.192 297.04 11.192C298.096 11.192 298.096 10.76 298.096 9.08C298.096 7.4 298.096 6.92 296.992 6.92C295.264 6.92 293.584 7.064 291.856 7.064H290.176C289.216 7.064 288.832 6.68 288.832 5.72V4.472ZM266.992 21.464C267.808 21.56 268.24 21.992 268.336 22.808V28.04C268.24 28.856 267.808 29.288 266.992 29.384H265.312C264.496 29.288 264.064 28.856 263.968 28.04V22.808C264.064 21.992 264.496 21.56 265.312 21.464H266.992ZM265.312 17.288C264.496 17.192 264.064 16.808 263.968 15.944V11.144C264.064 10.328 264.496 9.896 265.312 9.8H266.992C267.808 9.896 268.24 10.328 268.336 11.144V15.944C268.24 16.808 267.808 17.192 266.992 17.288H265.312ZM267.136 33.8C267.856 33.8 268.24 34.088 268.24 34.856C268.288 36.296 268.432 36.344 270.448 36.344C272.128 36.344 272.656 36.344 272.656 35.24C272.656 33.464 272.56 31.688 272.56 29.912V11.672C272.56 10.328 272.608 8.936 272.608 7.592C272.608 6.056 272.272 5.336 270.688 5.336C269.824 5.336 269.008 5.384 268.144 5.384H263.776C262.912 5.384 262.048 5.336 261.232 5.336C259.6 5.336 259.312 6.152 259.312 7.592C259.312 8.936 259.36 10.328 259.36 11.672V31.832C259.36 33.608 259.264 35.336 259.264 37.064C259.264 38.264 259.744 38.264 261.616 38.264C263.536 38.264 264.064 38.312 264.064 37.112C264.064 36.392 264.016 35.72 264.016 35.048C264.064 34.136 264.448 33.8 265.312 33.8H267.136ZM337.168 13.16C337.168 12.488 337.6 12.008 338.32 12.008H343.888C344.56 12.008 344.992 12.488 344.992 13.16V13.544C344.992 14.264 344.56 14.696 343.888 14.696H338.32C337.6 14.696 337.168 14.264 337.168 13.544V13.16ZM343.888 6.248C344.56 6.248 344.992 6.728 344.992 7.4V7.784C344.992 8.456 344.56 8.888 343.888 8.888H338.32C337.6 8.888 337.168 8.456 337.168 7.784V7.4C337.168 6.728 337.6 6.248 338.32 6.248H343.888ZM343.696 18.296C344.608 18.296 344.992 18.68 344.992 19.64V37.352C344.992 38.36 344.848 39.176 343.456 39.176C342.592 39.176 341.536 39.032 341.104 39.032C340.288 39.032 340.144 39.512 340.144 40.28C340.144 43.928 341.2 43.928 343.072 43.928C347.2 43.928 349.84 43.016 349.84 38.408C349.84 37.064 349.744 35.768 349.744 34.424V9.368C349.744 7.88 349.84 6.392 349.84 4.904C349.84 2.936 349.072 2.456 347.248 2.456C346.048 2.456 344.848 2.552 343.648 2.552H338.512C337.312 2.552 336.112 2.456 334.864 2.456C332.944 2.456 332.32 3.08 332.32 5C332.32 6.392 332.416 7.784 332.416 9.176V11.96C332.416 13.304 332.32 14.648 332.32 15.992C332.32 17.912 333.136 18.392 334.912 18.392C336.112 18.392 337.312 18.296 338.512 18.296H343.696ZM315.136 13.064C315.136 12.392 315.616 11.912 316.288 11.912H322.048C322.72 11.912 323.2 12.392 323.2 13.064V13.496C323.2 14.168 322.72 14.648 322.048 14.648H316.288C315.616 14.648 315.136 14.168 315.136 13.496V13.064ZM322.048 6.2C322.72 6.2 323.2 6.68 323.2 7.352V7.688C323.2 8.36 322.72 8.84 322.048 8.84H316.288C315.616 8.84 315.136 8.36 315.136 7.688V7.352C315.136 6.68 315.616 6.2 316.288 6.2H322.048ZM315.136 19.544C315.136 18.632 315.52 18.248 316.48 18.248H321.808C323.008 18.248 324.256 18.296 325.456 18.296C327.232 18.296 328 17.816 328 15.944C328 14.552 327.952 13.208 327.952 11.864V9.128C327.952 7.688 328 6.248 328 4.808C328 2.936 327.232 2.408 325.456 2.408C324.208 2.408 323.008 2.504 321.808 2.504H316.528C315.28 2.504 314.08 2.408 312.88 2.408C311.056 2.408 310.336 2.984 310.336 4.856C310.336 6.344 310.384 7.832 310.384 9.32V35.336C310.384 37.736 310.288 40.088 310.288 42.44C310.288 43.928 310.72 43.976 312.784 43.976C314.8 43.976 315.28 43.928 315.28 42.44C315.28 40.04 315.136 37.688 315.136 35.336V19.544ZM325.984 32.888C325.984 32.216 326.464 31.784 327.136 31.784H332.704C333.376 31.784 333.808 32.216 333.808 32.888V33.032C333.808 33.704 333.376 34.184 332.704 34.184H327.136C326.464 34.184 325.984 33.704 325.984 33.032V32.888ZM326.896 28.568C326.368 28.52 326.032 28.184 325.984 27.656V27.128C325.984 26.552 326.368 26.264 326.896 26.216H332.896C333.472 26.216 333.808 26.552 333.808 27.128V27.656C333.808 28.184 333.472 28.568 332.896 28.568H326.896ZM332.896 37.976C333.472 37.976 333.76 38.216 333.76 38.84V39.32C333.76 40.328 334.288 40.328 336.112 40.328C337.888 40.328 338.464 40.328 338.464 39.272C338.464 38.072 338.368 36.824 338.368 35.624V27.128C338.368 26.168 338.416 25.208 338.416 24.248C338.416 22.616 337.36 22.328 335.968 22.328C334.96 22.328 333.952 22.376 332.944 22.376H326.896C325.84 22.376 324.832 22.328 323.824 22.328C322.432 22.328 321.424 22.616 321.424 24.248C321.424 25.208 321.472 26.168 321.472 27.128V35.624C321.472 36.824 321.376 38.072 321.376 39.272C321.376 40.328 321.952 40.328 323.728 40.328C325.888 40.328 326.128 40.328 326.08 38.84C326.08 38.216 326.368 37.976 326.944 37.976H332.896Z" fill="black"/>
</svg>
